<?xml version="1.0" standalone="no"?>
<!DOCTYPE svg PUBLIC "-//W3C//DTD SVG 20010904//EN"
 "http://www.w3.org/TR/2001/REC-SVG-20010904/DTD/svg10.dtd">
<svg version="1.0" xmlns="http://www.w3.org/2000/svg"
 width="720.000000pt" height="720.000000pt" viewBox="0 0 720.000000 720.000000"
 preserveAspectRatio="xMidYMid meet">

<g transform="translate(0.000000,720.000000) scale(0.100000,-0.100000)"
fill="#000000" stroke="none">
<path d="M3528 6466 c-95 -34 -172 -104 -222 -203 -19 -38 -65 -230 -71 -295
-3 -40 -1 -48 13 -48 14 0 18 11 20 58 2 42 11 69 32 102 16 25 32 59 36 75
15 61 68 156 106 191 113 101 242 96 356 -15 65 -63 132 -226 132 -319 l0 -35
-57 7 c-85 9 -229 33 -240 39 -5 3 0 52 13 114 22 111 21 153 -3 94 -23 -54
-42 -141 -52 -226 -7 -65 -6 -82 5 -91 9 -7 82 -13 192 -16 167 -4 232 2 232
23 0 5 16 27 35 48 93 103 243 109 339 15 82 -82 83 -232 1 -360 -20 -30 -82
-110 -138 -177 -56 -67 -122 -153 -145 -190 -24 -38 -46 -66 -49 -63 -3 3 -12
63 -20 133 -7 70 -17 131 -21 135 -5 5 -109 3 -233 -4 -123 -7 -291 -13 -374
-13 l-150 1 85 -12 c47 -6 79 -12 73 -13 -9 -1 -6 -8 6 -20 11 -11 18 -30 17
-43 -8 -59 -20 -106 -37 -138 -11 -19 -19 -42 -19 -50 0 -9 -4 -20 -9 -25 -5
-6 -11 -35 -14 -66 -5 -68 -11 -79 -42 -79 -13 0 -35 -4 -49 -10 -23 -8 -26
-7 -26 11 0 13 -4 18 -12 13 -7 -4 -8 -3 -4 5 4 6 4 21 0 34 -6 16 -11 1 -19
-58 -7 -44 -15 -94 -19 -111 l-7 -31 319 -8 c176 -4 377 -4 447 0 l127 8 -7
88 -6 88 37 68 c63 113 102 166 289 393 92 112 152 268 140 364 -15 119 -106
231 -213 262 -100 29 -216 1 -280 -67 -20 -21 -35 -30 -40 -24 -5 6 -15 42
-21 82 -27 158 -135 307 -254 351 -65 25 -143 28 -199 8z m479 -1268 c-3 -7
-5 -2 -5 12 0 14 2 19 5 13 2 -7 2 -19 0 -25z m-775 -230 c-7 -7 -12 -8 -12
-2 0 6 3 14 7 17 3 4 9 5 12 2 2 -3 -1 -11 -7 -17z"/>
<path d="M5456 6338 c3 -21 3 -50 -1 -65 l-7 -28 -13 25 c-13 22 -14 4 -15
-152 l0 -178 24 0 c38 0 76 -56 76 -111 l0 -44 23 40 c13 22 37 59 54 83 86
118 55 243 -107 422 l-41 45 7 -37z"/>
<path d="M2503 6255 c-79 -34 -155 -105 -113 -105 6 0 10 -4 10 -9 0 -6 -12
-6 -30 -1 -20 6 -28 5 -24 -1 9 -16 -25 -81 -62 -116 -47 -46 -25 -41 28 5 63
55 228 225 228 234 0 10 2 10 -37 -7z"/>
<path d="M2525 6213 c-58 -81 -197 -216 -287 -276 -43 -29 -77 -55 -78 -58 0
-10 131 -31 227 -36 73 -5 96 -10 109 -24 10 -11 23 -19 30 -19 7 0 16 -5 20
-12 4 -7 3 -8 -4 -4 -8 5 -10 1 -5 -10 6 -15 7 -15 15 1 8 14 14 8 35 -32 14
-26 37 -62 50 -80 13 -17 27 -48 30 -70 4 -21 19 -58 35 -83 l29 -45 -6 34
c-8 40 7 35 31 -10 8 -17 31 -51 50 -76 31 -41 98 -163 89 -163 -1 0 -19 25
-39 55 -20 30 -41 57 -46 60 -6 3 -10 14 -10 24 0 9 -13 30 -30 46 -36 35 -39
24 -6 -20 13 -17 39 -58 56 -91 18 -32 35 -61 39 -64 9 -7 38 -54 73 -119 17
-31 45 -76 63 -101 17 -25 46 -70 63 -101 17 -30 40 -63 50 -73 19 -16 20 -16
27 1 6 15 27 386 22 389 -43 19 -181 167 -336 359 l-73 90 240 3 c239 2 240 2
246 25 3 12 6 34 6 48 0 14 7 34 15 45 20 27 19 34 -10 34 -22 0 -25 -4 -25
-39 0 -32 -4 -40 -22 -45 -13 -3 -127 -6 -253 -6 l-231 0 -45 48 c-92 95 -89
88 -82 231 6 123 -1 222 -15 221 -4 -1 -25 -26 -47 -57z"/>
<path d="M3581 6223 c-5 -10 -12 -16 -16 -14 -7 4 -148 -60 -142 -65 7 -7 152
58 172 77 11 10 14 19 8 19 -7 0 -16 -8 -22 -17z"/>
<path d="M3566 6171 c-4 -5 -40 -28 -82 -50 -41 -22 -86 -54 -100 -71 -14 -16
-32 -30 -40 -30 -8 0 -14 -5 -14 -11 0 -5 -4 -8 -9 -5 -5 3 -15 -14 -23 -39
l-15 -45 137 0 137 0 6 83 c4 45 10 103 15 130 8 43 2 61 -12 38z"/>
<path d="M1423 6120 c6 -52 56 -175 90 -223 22 -33 77 -173 77 -199 0 -31 -27
-20 -71 30 -23 26 -36 39 -29 30 17 -24 9 -23 -59 11 -33 17 -80 32 -110 34
-49 4 -51 3 -45 -17 10 -35 66 -87 119 -112 40 -19 67 -24 132 -24 l82 0 20
-54 c25 -69 54 -177 47 -183 -11 -11 -46 10 -70 42 -33 43 -119 104 -109 78 3
-10 11 -24 16 -31 6 -8 -7 -5 -34 6 -94 40 -199 52 -199 22 0 -24 75 -89 131
-115 47 -21 82 -28 148 -32 133 -7 124 -1 154 -100 15 -49 27 -96 27 -105 0
-29 -31 -29 -79 -1 -25 15 -77 36 -116 45 -80 20 -245 25 -245 7 0 -6 17 -28
38 -49 68 -68 199 -94 351 -70 35 6 65 9 68 6 8 -8 64 -229 58 -234 -2 -3 -36
11 -73 31 -92 48 -112 37 -56 -30 38 -44 45 -48 95 -53 l53 -5 22 -140 c32
-201 37 -219 58 -223 17 -4 18 1 13 50 -3 29 -14 107 -26 173 -27 155 -27 150
12 161 28 9 33 15 38 52 6 48 -1 51 -49 22 -40 -25 -52 -25 -52 -2 0 10 -11
61 -25 112 -13 52 -21 98 -17 101 4 4 25 12 47 19 127 40 251 132 275 204 11
34 10 41 -7 65 -36 48 -64 41 -145 -41 -40 -40 -74 -77 -76 -83 -1 -5 -8 -17
-15 -25 -7 -8 -13 -19 -14 -23 -2 -19 -64 -78 -75 -75 -10 4 -65 175 -68 209
0 3 25 16 56 29 72 29 174 124 208 193 30 58 33 89 11 111 -14 13 -19 13 -50
0 -27 -11 -35 -11 -35 -2 0 19 -29 -27 -33 -51 -2 -12 -9 -27 -15 -33 -15 -15
-16 -32 -2 -23 16 10 11 -1 -7 -16 -14 -12 -16 -12 -8 0 5 10 4 12 -3 7 -7 -4
-12 -12 -12 -17 0 -5 -11 -21 -25 -35 -14 -14 -25 -29 -25 -34 0 -5 -6 -15
-12 -22 -7 -8 -18 -23 -24 -33 -22 -38 -37 -21 -66 70 -15 50 -28 98 -28 107
0 10 16 26 39 37 46 24 83 66 117 132 37 73 31 169 -11 169 -17 0 -68 -88
-109 -187 -22 -53 -45 -93 -52 -93 -8 0 -14 1 -14 3 0 1 -12 34 -26 72 -14 39
-32 114 -39 169 -16 116 -52 199 -95 221 -48 25 -53 20 -47 -35z"/>
<path d="M1828 6154 c-27 -14 -34 -36 -22 -68 9 -23 27 -20 19 3 -4 13 1 27
14 40 17 17 25 19 45 9 14 -6 27 -16 30 -23 7 -20 -23 -55 -47 -55 -18 0 -19
-2 -7 -10 26 -17 68 -12 80 9 16 32 12 60 -15 86 -27 28 -57 31 -97 9z"/>
<path d="M5322 6111 c-7 -21 -12 -54 -12 -72 0 -26 -3 -30 -10 -19 -5 8 -10
25 -10 38 0 15 -4 21 -11 16 -8 -4 -9 -27 -5 -68 4 -45 2 -69 -9 -90 -14 -27
-14 -31 12 -64 16 -20 33 -45 39 -55 10 -17 12 -12 16 32 4 38 12 59 32 80 22
23 26 36 26 88 0 51 -3 61 -17 59 -17 -1 -37 56 -28 82 2 6 1 12 -4 12 -4 0
-13 -17 -19 -39z"/>
<path d="M2202 5989 c-19 -30 1 -50 25 -26 16 16 16 17 0 17 -10 0 -14 5 -11
15 9 22 1 18 -14 -6z"/>
<path d="M2176 5933 c-6 -14 -5 -15 5 -6 7 7 10 15 7 18 -3 3 -9 -2 -12 -12z"/>
<path d="M5632 5874 c-31 -24 -118 -133 -110 -138 87 -54 127 -105 128 -164
l0 -24 28 22 c60 46 103 70 144 80 38 10 53 8 103 -9 71 -25 122 -27 172 -6
87 37 95 72 22 100 -28 11 -75 41 -104 68 -30 26 -56 43 -59 38 -3 -5 -24 -2
-48 6 -31 11 -67 14 -126 10 -72 -4 -84 -2 -92 13 -5 9 -6 20 -3 24 19 18 -27
2 -55 -20z m298 -89 c17 -9 30 -17 30 -18 0 -2 -42 -1 -94 1 -102 5 -117 -1
-188 -66 -15 -14 -30 -23 -34 -20 -9 10 63 84 99 102 42 20 148 21 187 1z"/>
<path d="M5440 5804 c0 -71 4 -90 20 -111 24 -31 26 -51 3 -32 -15 13 -15 11
-9 -24 12 -66 -34 -91 -73 -41 -13 17 -21 21 -21 12 0 -18 31 -48 51 -48 8 0
22 -7 32 -14 16 -13 16 -14 -5 -20 -43 -11 -75 -6 -95 17 -21 22 -37 87 -21
87 12 0 10 28 -3 36 -6 3 -18 -1 -27 -10 -9 -9 -11 -16 -5 -16 6 0 14 -7 17
-16 7 -19 -19 -60 -29 -45 -3 6 -1 11 4 11 6 0 11 9 11 20 0 31 -17 24 -36
-15 -32 -68 -3 -167 60 -208 34 -23 137 -38 179 -26 45 12 101 70 116 118 8
29 9 52 1 88 -16 69 -47 110 -107 138 -52 25 -53 25 -33 45 24 24 26 70 5 110
-26 50 -35 35 -35 -56z"/>
<path d="M5185 5840 c1 -47 -6 -49 -60 -15 -77 47 -198 30 -280 -40 l-30 -26
55 21 c35 13 79 20 121 20 59 0 72 -4 115 -32 26 -18 54 -44 63 -57 14 -22 11
-21 -29 7 -50 35 -100 51 -100 33 0 -7 15 -18 33 -26 31 -14 30 -14 -49 -15
-60 0 -102 -7 -160 -26 -61 -20 -91 -25 -134 -21 l-55 6 28 -25 c34 -29 109
-33 177 -9 91 32 159 16 259 -61 l45 -34 18 59 c14 47 28 68 64 100 35 30 44
45 39 60 -7 24 -97 121 -111 121 -6 0 -10 -18 -9 -40z"/>
<path d="M3435 5850 c-135 -5 -153 -7 -127 -15 52 -14 63 -30 46 -63 -9 -18
-10 -31 -3 -44 15 -27 -5 -57 -35 -54 -20 3 -27 -3 -35 -25 -10 -28 -43 -54
-55 -42 -3 3 -7 18 -7 32 -1 25 -2 24 -8 -4 -4 -16 -3 -32 1 -33 5 -2 6 -7 3
-11 -13 -23 605 -34 740 -14 l60 8 -2 110 c-1 61 -6 122 -12 138 l-11 27 -202
-2 c-112 -1 -270 -5 -353 -8z"/>
<path d="M2179 5681 c-52 -52 -34 -142 31 -156 71 -16 130 30 130 100 -1 79
-102 114 -161 56z m101 -11 c41 -41 18 -120 -34 -120 -29 0 -44 17 -52 58 -5
25 -1 36 19 56 31 31 41 32 67 6z"/>
<path d="M2586 5697 c3 -10 9 -15 12 -12 3 3 0 11 -7 18 -10 9 -11 8 -5 -6z"/>
<path d="M5347 5694 c-15 -8 -25 -19 -22 -24 6 -10 65 17 65 31 0 12 -10 11
-43 -7z"/>
<path d="M1100 5565 c-19 -23 3 -67 32 -63 34 5 46 33 24 57 -23 25 -39 26
-56 6z"/>
<path d="M5027 5573 c-4 -3 -7 -18 -7 -33 0 -15 -10 -35 -21 -46 -28 -25 -76
-125 -85 -178 -3 -22 -10 -44 -15 -47 -5 -3 3 -30 18 -60 22 -43 33 -54 52
-54 20 0 26 7 36 47 6 26 18 54 26 64 23 28 82 61 144 80 33 10 62 19 64 21 2
1 -8 16 -23 33 -14 17 -26 41 -26 54 0 31 -26 64 -78 97 -45 28 -72 36 -85 22z
m19 -133 c-20 -22 -36 -45 -36 -50 0 -13 17 -13 25 0 8 13 73 40 94 39 13 0
13 -1 1 -6 -8 -3 -32 -17 -53 -30 -20 -14 -47 -26 -60 -27 -16 -1 -29 -14 -47
-51 -19 -39 -26 -45 -28 -29 -5 32 46 130 85 164 49 43 62 37 19 -10z"/>
<path d="M5719 5548 c-51 -36 -56 -42 -68 -85 -5 -18 -19 -46 -31 -63 l-21
-30 26 -10 c14 -5 31 -10 36 -10 20 0 85 -39 111 -67 14 -15 30 -46 34 -68 14
-80 50 -88 94 -19 36 58 55 137 46 198 -13 82 -102 186 -161 186 -12 0 -42
-14 -66 -32z"/>
<path d="M2490 5555 c0 -10 24 -105 46 -181 22 -79 18 -114 -16 -156 -17 -20
-39 -40 -50 -43 -13 -4 -22 -19 -26 -43 -4 -20 -38 -160 -75 -311 -38 -151
-67 -276 -65 -279 10 -10 214 42 259 65 56 31 87 69 130 161 29 61 32 76 32
162 0 86 -3 102 -33 168 -18 40 -37 99 -42 130 -12 71 -21 93 -88 217 -53 99
-72 128 -72 110z"/>
<path d="M3660 5538 c-19 -5 -133 -10 -253 -11 -189 -1 -217 -4 -215 -17 4
-21 341 -34 614 -23 l209 8 3 28 3 27 -163 -1 c-90 -1 -179 -5 -198 -11z"/>
<path d="M6144 5481 c-107 -66 -127 -228 -34 -276 49 -25 88 -19 126 19 37 37
43 69 18 104 -14 21 -44 29 -56 16 -4 -3 1 -19 10 -35 16 -29 16 -31 -7 -50
-32 -26 -56 -24 -80 7 -35 45 -23 112 29 159 32 29 133 28 176 -2 93 -66 113
-232 40 -339 -18 -27 -25 -30 -45 -23 -19 7 -22 6 -17 -6 3 -8 1 -15 -5 -15
-6 0 -9 -6 -6 -12 2 -7 10 -12 16 -10 7 1 9 -3 6 -9 -5 -8 -10 -8 -18 0 -19
19 -27 12 -33 -28 -5 -32 -10 -38 -25 -34 -15 4 -18 2 -13 -13 4 -11 3 -16 -1
-11 -5 4 -22 -5 -39 -20 -17 -15 -25 -21 -18 -13 19 22 14 31 -10 21 -36 -15
-63 -24 -69 -25 -3 -1 -25 -22 -50 -48 -73 -78 -80 -58 -19 56 22 42 36 76 31
76 -13 0 -79 -88 -125 -166 -33 -57 -109 -124 -124 -110 -8 9 17 102 45 165
13 30 21 56 19 59 -10 10 -83 -118 -110 -195 -24 -66 -34 -82 -53 -86 -20 -4
-23 0 -23 27 0 17 9 60 20 95 11 36 18 67 16 69 -3 3 -57 -92 -103 -180 -8
-15 -20 -55 -27 -90 l-13 -63 -6 61 c-8 76 -16 101 -28 82 -5 -7 -9 -28 -9
-46 0 -18 -4 -41 -9 -50 -4 -9 -11 -36 -15 -59 -6 -39 -5 -42 26 -52 43 -15
42 -16 72 28 26 37 53 57 64 47 2 -3 -8 -26 -23 -51 -15 -26 -25 -49 -22 -51
6 -6 102 -43 147 -56 163 -48 383 100 562 379 103 161 143 297 136 465 -4 98
-8 120 -31 163 -32 60 -64 98 -109 125 -45 27 -140 28 -184 1z"/>
<path d="M1013 5438 c-51 -24 -34 -140 22 -154 32 -8 69 1 90 23 25 25 14 91
-20 120 -28 25 -57 28 -92 11z m81 -34 c15 -38 6 -74 -20 -86 -23 -11 -29 -10
-45 11 -22 26 -24 44 -9 72 13 24 65 26 74 3z"/>
<path d="M3190 5439 c0 -5 5 -7 10 -4 6 3 10 8 10 11 0 2 -4 4 -10 4 -5 0 -10
-5 -10 -11z"/>
<path d="M3181 5404 c0 -11 3 -14 6 -6 3 7 2 16 -1 19 -3 4 -6 -2 -5 -13z"/>
<path d="M5350 5305 c0 -8 -6 -14 -12 -12 -7 1 -11 -5 -9 -13 1 -8 4 -24 5
-35 2 -11 15 -44 30 -74 27 -51 28 -60 27 -188 -1 -74 1 -151 5 -171 l7 -37
14 40 c8 22 17 100 20 173 6 121 9 137 31 170 31 45 51 97 52 135 l0 27 -85 0
c-69 0 -85 -3 -85 -15z"/>
<path d="M2411 5249 c-11 -28 -21 -60 -21 -70 0 -32 -18 -21 -30 19 -16 48
-39 84 -49 77 -10 -5 1 -64 24 -132 18 -52 3 -111 -32 -124 -18 -7 -28 0 -63
47 -38 51 -60 67 -60 44 0 -5 14 -40 31 -77 41 -90 42 -109 9 -143 -16 -16
-27 -30 -27 -32 1 -2 -26 25 -60 61 -34 36 -62 60 -63 53 0 -17 35 -86 71
-139 16 -23 29 -44 29 -46 0 -3 -10 -7 -22 -10 -15 -4 -30 1 -45 15 -23 21
-23 21 -23 1 0 -32 21 -86 43 -110 37 -41 12 -33 -41 13 l-52 46 0 -36 c0 -49
33 -133 67 -168 19 -19 36 -28 57 -27 53 2 81 14 93 41 13 26 52 172 124 463
65 264 69 279 65 282 -2 2 -13 -20 -25 -48z"/>
<path d="M4403 5264 c-36 -18 -66 -72 -61 -111 5 -41 25 -38 31 4 9 57 38 83
91 83 54 0 98 -33 169 -125 36 -48 55 -64 67 -60 30 9 216 -205 243 -279 7
-17 4 -18 -28 -13 -33 5 -35 4 -35 -23 0 -31 -16 -42 -42 -28 -25 13 -23 3 17
-56 48 -73 64 -85 126 -95 30 -5 66 -12 81 -16 26 -7 27 -6 19 22 -5 15 -20
57 -35 92 -48 112 -9 81 49 -39 19 -41 39 -82 44 -90 5 -10 26 -16 59 -18 l50
-3 -4 43 c-8 73 -35 160 -68 223 -51 98 -223 256 -197 181 6 -17 7 -67 2 -92
0 -4 -86 79 -190 184 -104 105 -204 198 -221 207 -48 25 -128 29 -167 9z"/>
<path d="M4480 5165 c0 -33 25 -81 45 -89 32 -12 85 -6 92 9 7 20 -18 48 -73
80 -54 31 -64 31 -64 0z"/>
<path d="M5120 5142 c0 -10 18 -55 39 -99 75 -154 124 -305 161 -496 12 -61
22 -71 81 -82 l35 -6 13 68 c19 99 72 236 161 418 82 166 97 205 83 205 -18 0
-118 -112 -149 -167 -74 -130 -88 -162 -109 -242 -11 -47 -26 -86 -31 -88 -6
-2 -21 38 -33 89 -30 125 -105 277 -177 356 -58 65 -74 74 -74 44z"/>
<path d="M980 5056 c0 -6 82 -70 158 -123 25 -18 49 -30 54 -27 4 3 8 -1 8 -9
0 -8 33 -41 73 -74 88 -73 278 -273 347 -365 28 -38 53 -68 56 -68 3 0 25 9
50 20 l44 20 0 73 c0 84 -19 158 -62 239 -38 72 -75 109 -88 88 -5 -8 -10 -10
-10 -5 0 15 -40 -54 -40 -70 0 -11 -7 -12 -32 -4 -23 6 -34 5 -40 -4 -5 -7 -8
0 -8 19 0 44 -27 129 -47 145 -15 13 -16 8 -9 -68 7 -89 3 -98 -43 -88 -22 5
-43 30 -111 140 -91 147 -117 170 -94 83 8 -31 10 -56 4 -62 -5 -5 -29 12 -57
40 -43 43 -153 115 -153 100z"/>
<path d="M2869 4878 c-4 -75 -8 -94 -41 -157 -27 -51 -33 -71 -23 -71 23 0 83
69 101 116 18 46 16 59 -14 143 l-20 54 -3 -85z"/>
<path d="M1010 4935 c0 -6 33 -30 73 -55 39 -24 91 -58 113 -74 23 -17 50 -36
60 -43 11 -7 0 -6 -26 3 -43 15 -57 17 -142 28 -37 4 -37 4 -22 -18 8 -13 12
-30 8 -39 -5 -14 -8 -14 -27 4 -29 27 -57 42 -57 30 0 -5 15 -31 33 -57 25
-38 46 -56 94 -79 60 -29 85 -53 44 -42 -12 3 -18 0 -15 -7 5 -15 -63 -89 -76
-81 -38 24 36 -92 81 -126 84 -64 187 -97 255 -80 50 12 187 60 196 70 26 24
-318 407 -475 528 -55 43 -117 63 -117 38z"/>
<path d="M4476 4893 c-3 -4 22 -36 58 -72 36 -37 84 -100 109 -141 31 -53 50
-76 66 -78 21 -3 22 -1 16 30 -13 59 -62 142 -113 192 -68 67 -114 90 -136 69z"/>
<path d="M4275 4840 c-3 -5 4 -14 17 -19 43 -17 53 -22 88 -41 34 -18 34 -19
9 -20 -35 0 -59 -27 -33 -36 62 -20 128 -49 149 -66 46 -36 145 -64 145 -41 0
3 -14 28 -32 55 -40 64 -136 141 -200 162 -56 18 -134 21 -143 6z"/>
<path d="M970 4828 c0 -9 5 -20 11 -23 17 -11 18 -2 3 19 -12 17 -14 17 -14 4z"/>
<path d="M674 4798 c-39 -30 -67 -67 -76 -97 -13 -43 3 -43 26 1 26 50 77 88
118 88 110 0 179 -120 109 -191 -16 -16 -37 -29 -46 -29 -31 0 -55 20 -55 46
0 19 6 26 30 31 24 4 28 8 19 19 -28 34 -81 7 -94 -48 -6 -22 -1 -33 23 -58
33 -32 54 -36 99 -19 92 35 114 138 46 219 -53 63 -144 80 -199 38z"/>
<path d="M3377 4810 l-248 -5 20 -22 c21 -22 8 -21 316 -39 90 -6 105 -9 80
-16 -37 -12 -369 -16 -407 -5 -25 7 -28 5 -28 -17 l0 -24 153 -7 c83 -3 307
-5 497 -3 l345 3 0 30 c0 25 -4 30 -22 29 -13 0 -23 3 -23 8 0 4 5 8 10 8 6 0
10 15 10 34 l0 34 -227 -1 c-126 -1 -340 -4 -476 -7z"/>
<path d="M6552 4763 c19 -21 38 -47 42 -57 3 -10 9 -16 12 -13 14 13 -55 107
-78 107 -7 0 4 -17 24 -37z"/>
<path d="M6409 4644 c-10 -13 -10 -17 2 -25 8 -5 22 -9 31 -9 51 0 24 -53 -37
-70 -55 -16 -58 -30 -6 -30 46 0 87 30 97 72 4 21 0 33 -20 52 -29 30 -48 33
-67 10z"/>
<path d="M4740 4635 c0 -5 5 -17 10 -25 5 -8 10 -10 10 -5 0 6 -5 17 -10 25
-5 8 -10 11 -10 5z"/>
<path d="M3278 4532 c-76 -1 -138 -6 -138 -10 0 -4 13 -16 29 -27 41 -27 51
-53 41 -106 -14 -71 -89 -359 -100 -378 -6 -13 -25 -20 -61 -23 -60 -6 -80
-26 -46 -48 12 -8 32 -25 44 -36 l22 -22 -24 -88 c-37 -136 -52 -168 -97 -213
l-42 -41 33 0 c35 0 213 21 220 26 2 2 -9 17 -23 35 -29 35 -29 47 3 144 l16
50 132 3 131 3 16 -55 c21 -72 20 -103 -5 -134 l-21 -27 278 -3 c152 -1 279 0
282 3 2 2 -9 20 -26 39 -38 44 -44 72 -40 211 l3 110 44 6 44 6 29 -65 c16
-35 41 -97 55 -136 87 -244 187 -318 360 -267 39 12 73 27 75 33 3 9 40 11
132 9 145 -3 201 11 264 65 49 42 98 125 117 199 22 88 20 261 -5 345 -23 76
-85 178 -139 228 -43 40 -128 85 -191 100 -44 11 -265 42 -298 42 -11 0 -5
-12 23 -40 37 -38 38 -41 46 -137 5 -54 5 -234 2 -400 -5 -269 -8 -306 -24
-333 -15 -25 -25 -30 -55 -30 -57 0 -103 55 -149 177 -21 54 -53 133 -72 177
-32 74 -33 79 -16 92 10 7 21 14 25 14 20 1 74 61 94 105 29 61 32 162 8 221
-24 59 -90 121 -154 145 -45 17 -90 23 -244 30 -104 5 -192 6 -195 4 -2 -3 12
-22 32 -43 l37 -38 0 -394 0 -394 -31 -33 c-30 -30 -33 -31 -60 -18 -40 21
-73 98 -119 278 -23 87 -66 244 -96 349 -29 105 -54 200 -54 211 0 12 12 33
26 48 17 18 21 28 12 30 -7 2 -75 3 -150 1z m772 -134 c62 -32 90 -77 90 -146
0 -76 -30 -137 -80 -162 -38 -19 -145 -41 -155 -32 -8 8 -6 348 2 355 15 16
101 6 143 -15z m657 -52 c68 -32 127 -95 154 -164 18 -46 23 -84 27 -192 3
-120 1 -141 -17 -192 -12 -31 -31 -68 -42 -82 -32 -40 -93 -67 -157 -69 l-57
-2 -3 363 -2 362 22 0 c13 0 46 -11 75 -24z m-1367 -274 c25 -90 39 -156 34
-162 -5 -4 -47 -10 -94 -12 l-85 -3 3 39 c2 22 17 86 33 143 16 57 29 107 29
112 0 6 5 22 11 38 14 37 16 31 69 -155z"/>
<path d="M2791 4509 c-68 -10 -126 -21 -129 -24 -3 -3 9 -20 27 -39 l32 -33
-3 -489 c-3 -483 -3 -490 -26 -545 -44 -110 -141 -191 -230 -193 -37 -1 -48 4
-73 32 -25 28 -30 41 -27 75 4 52 26 59 69 23 37 -31 49 -32 83 -5 75 59 -36
158 -144 129 -146 -39 -172 -237 -40 -314 28 -17 52 -21 120 -21 76 0 93 4
152 33 106 52 186 156 239 311 17 49 19 91 20 450 0 218 4 431 7 473 7 69 11
81 40 111 17 18 32 36 32 40 0 9 2 9 -149 -14z"/>
<path d="M5120 4395 c0 -4 16 -25 35 -47 l36 -39 -3 -405 -3 -406 -39 -33
c-32 -26 -35 -33 -21 -38 9 -4 26 -7 37 -7 11 0 67 -12 125 -26 57 -15 107
-23 110 -20 4 3 -5 19 -20 34 -14 15 -31 40 -36 55 -7 18 -11 169 -11 423 l0
395 30 28 30 27 -117 29 c-65 16 -126 30 -135 33 -10 2 -18 1 -18 -3z"/>
<path d="M2085 4359 c-71 -16 -135 -32 -142 -34 -7 -2 2 -18 23 -39 l34 -34
-2 -183 -3 -182 -35 -12 c-48 -16 -47 -41 3 -37 l37 3 0 -176 c0 -190 -4 -210
-58 -267 -33 -35 -17 -37 71 -7 34 12 97 31 139 44 151 44 291 155 348 277 62
131 78 330 36 453 -36 106 -117 184 -217 211 -70 18 -81 17 -234 -17z m225
-107 c49 -24 88 -86 101 -157 15 -85 -2 -287 -29 -348 -36 -82 -138 -173 -215
-192 l-27 -7 0 354 c0 195 3 358 7 361 14 14 128 7 163 -11z"/>
<path d="M6163 4365 c-62 -28 -69 -45 -15 -35 46 8 59 15 72 41 13 24 7 23
-57 -6z"/>
<path d="M1004 4351 c19 -21 98 -61 118 -61 7 1 -5 10 -27 22 -22 11 -51 29
-64 39 -31 25 -49 24 -27 0z"/>
<path d="M675 4305 c13 -31 34 -69 45 -85 25 -36 53 -100 43 -100 -5 1 -33 14
-63 30 -30 17 -61 30 -67 30 -31 0 -7 -23 68 -67 44 -25 84 -54 89 -64 9 -15
6 -16 -28 -8 -71 16 -72 3 -1 -41 28 -17 49 -34 46 -37 -3 -2 -30 2 -60 11
-72 21 -75 20 -47 -9 l23 -25 -24 -1 c-23 -1 -23 -1 4 -11 15 -5 27 -14 27
-19 0 -6 -4 -8 -9 -4 -5 3 -12 1 -15 -4 -9 -14 72 -81 131 -108 30 -14 72 -27
93 -30 38 -5 39 -7 69 -82 16 -42 37 -97 47 -123 17 -50 34 -63 34 -28 0 22
-51 173 -71 211 -6 13 -25 39 -41 58 -17 19 -49 73 -72 120 -23 47 -59 117
-80 154 -21 37 -36 70 -33 73 10 10 104 -135 153 -236 48 -101 48 -102 66 -80
14 17 18 41 18 106 0 112 -27 191 -92 275 -54 68 -58 61 -22 -34 19 -48 19
-49 -1 -63 -11 -8 -25 -12 -32 -10 -7 3 -13 0 -13 -7 0 -19 -64 59 -135 166
-36 53 -67 97 -70 97 -3 0 6 -25 20 -55z"/>
<path d="M5450 4315 c0 -4 16 -25 35 -46 l35 -39 -2 -417 -3 -418 -32 -20
c-41 -25 -41 -32 0 -40 17 -4 71 -18 120 -32 48 -15 91 -23 95 -18 4 4 2 10
-5 12 -7 2 -23 21 -35 41 -22 36 -23 45 -26 322 -2 179 0 281 6 275 5 -5 34
-84 65 -175 219 -650 287 -803 406 -913 60 -56 114 -82 193 -95 150 -23 256
35 289 160 11 39 10 52 -5 91 -42 111 -176 167 -262 111 -67 -44 -52 -160 22
-178 44 -11 60 13 47 71 -13 54 -5 67 37 58 39 -9 80 -60 80 -99 0 -66 -73
-134 -146 -136 -98 -1 -196 76 -260 205 l-39 79 -3 472 -3 472 31 25 c16 14
30 28 30 30 0 7 -50 25 -132 47 -108 28 -116 27 -84 -10 14 -17 28 -46 32 -65
7 -41 -2 -574 -10 -583 -3 -3 -6 3 -6 14 0 10 -52 172 -115 359 -63 187 -113
347 -110 355 5 15 -16 23 -227 87 -10 3 -18 2 -18 -2z"/>
<path d="M6482 4257 c-23 -34 -51 -85 -61 -112 -29 -76 -150 -305 -184 -349
-49 -63 -98 -226 -67 -226 5 0 21 37 35 83 14 45 28 87 33 93 4 6 25 14 47 18
66 12 166 68 221 123 64 63 118 170 139 273 17 83 20 150 5 114 -15 -38 -119
-118 -193 -149 l-38 -16 22 43 c12 23 37 64 55 91 28 41 43 77 31 77 -1 0 -21
-28 -45 -63z m132 -118 c-29 -32 -152 -95 -206 -106 -33 -6 -33 -6 -15 14 10
12 37 26 60 33 23 6 71 29 107 50 69 41 85 43 54 9z"/>
<path d="M1790 4290 c-36 -10 -92 -25 -124 -34 -32 -9 -62 -18 -65 -22 -3 -3
5 -13 18 -23 28 -21 32 3 -44 -286 -31 -121 -64 -248 -73 -282 -8 -35 -18 -63
-22 -63 -6 0 -25 60 -115 365 -36 123 -41 172 -20 195 23 26 19 25 -92 -10
-51 -16 -101 -30 -111 -30 -9 0 -24 -5 -32 -10 -12 -8 -10 -14 18 -39 27 -26
32 -37 33 -78 0 -26 0 -236 -1 -466 -1 -382 -3 -423 -20 -480 -23 -76 -69
-124 -154 -163 -50 -23 -68 -26 -121 -21 -103 8 -154 61 -142 148 7 55 23 71
66 67 32 -3 36 -7 44 -41 10 -42 44 -71 71 -61 24 9 47 60 40 88 -7 31 -50 70
-92 84 -24 8 -43 8 -78 -3 -64 -19 -89 -38 -120 -90 -22 -39 -26 -54 -22 -104
10 -136 135 -211 298 -177 89 19 133 44 235 138 45 41 98 84 118 97 20 12 37
25 37 29 0 3 -10 16 -22 29 -21 22 -21 30 -24 360 -2 382 -3 380 63 143 43
-156 114 -383 122 -392 4 -4 19 43 35 105 15 61 41 153 56 202 26 82 84 311
109 425 7 32 9 -42 8 -256 l-2 -301 -29 -37 c-15 -21 -26 -40 -23 -43 3 -3 64
16 136 42 l129 48 -34 32 -35 33 3 410 3 410 33 41 c37 46 34 47 -58 21z"/>
<path d="M6252 4123 c-6 -16 -22 -43 -34 -62 -19 -30 -22 -49 -23 -135 0 -88
2 -101 18 -104 9 -2 17 2 17 8 0 16 85 184 116 229 38 57 28 59 -21 6 -25 -28
-45 -53 -45 -57 0 -5 -5 -8 -11 -8 -8 0 -10 22 -5 75 4 41 5 75 4 75 -2 0 -9
-12 -16 -27z"/>
<path d="M6766 3735 c-3 -8 -1 -15 4 -15 6 0 10 7 10 15 0 8 -2 15 -4 15 -2 0
-6 -7 -10 -15z"/>
<path d="M6495 3700 c-22 -10 -32 -19 -23 -19 11 -1 15 -6 12 -16 -4 -8 -2
-15 4 -15 5 0 12 -11 14 -25 3 -14 1 -25 -3 -25 -5 0 -9 4 -9 9 0 18 -32 21
-48 4 -16 -15 -15 -16 10 -10 16 4 30 3 34 -5 4 -7 3 -8 -4 -4 -7 4 -20 2 -29
-4 -16 -10 -15 -11 5 -7 13 3 22 0 22 -6 0 -8 3 -8 8 -2 4 6 18 16 32 23 14 7
40 26 59 41 25 21 31 30 21 36 -8 5 -11 4 -7 -1 3 -6 -3 -15 -13 -22 -14 -9
-19 -8 -24 4 -3 8 -2 13 3 10 5 -3 12 1 15 10 3 9 2 12 -4 9 -6 -4 -19 -3 -31
0 -16 5 -18 10 -8 21 14 17 14 17 -36 -6z m35 -70 c0 -5 -2 -10 -4 -10 -3 0
-8 5 -11 10 -3 6 -1 10 4 10 6 0 11 -4 11 -10z"/>
<path d="M550 3604 c4 -28 14 -51 24 -56 13 -7 14 -13 6 -23 -8 -10 -7 -23 5
-50 14 -34 14 -39 -1 -50 -14 -10 -9 -19 40 -72 46 -50 70 -67 124 -87 37 -14
72 -26 78 -26 26 0 171 -64 195 -86 14 -13 28 -24 32 -24 16 0 5 28 -19 51
-15 13 -45 49 -67 79 -56 76 -221 244 -282 288 -27 20 -52 39 -55 42 -9 9 -79
60 -83 60 -2 0 -1 -21 3 -46z"/>
<path d="M6615 3625 c-30 -25 -30 -25 -3 -14 15 7 29 18 32 25 7 18 6 18 -29
-11z"/>
<path d="M683 3623 c-25 -9 -11 -29 54 -78 75 -58 198 -185 258 -268 36 -49
43 -54 48 -37 11 41 -11 153 -43 215 -38 75 -118 159 -143 149 -21 -8 -22 -23
-2 -30 30 -12 14 -24 -30 -24 -33 0 -45 4 -45 14 0 22 -17 28 -42 15 -21 -11
-22 -11 -10 4 11 13 10 15 -6 10 -11 -2 -23 0 -26 6 -5 7 0 9 11 5 11 -3 14
-2 8 3 -5 4 -12 11 -15 14 -3 4 -11 4 -17 2z m87 -53 c0 -5 -4 -10 -10 -10 -5
0 -10 5 -10 10 0 6 5 10 10 10 6 0 10 -4 10 -10z"/>
<path d="M6391 3596 c-1 -15 -4 -16 -16 -6 -13 10 -19 10 -33 -4 -23 -20 -36
-21 -28 -1 4 12 2 13 -15 2 -24 -14 -80 -97 -102 -149 -20 -47 -34 -178 -19
-178 6 0 34 28 62 63 29 34 93 104 142 155 68 69 86 92 72 94 -10 0 -25 2 -33
2 -8 1 -18 10 -22 21 -7 19 -8 19 -8 1z"/>
<path d="M6610 3596 c-14 -8 -28 -12 -32 -10 -13 8 -138 -98 -228 -193 -85
-89 -184 -212 -177 -220 2 -2 25 5 49 16 25 11 74 27 109 37 35 9 101 34 145
54 69 32 89 47 129 96 25 33 59 85 76 116 31 61 37 85 15 55 -13 -16 -14 -16
-20 9 -5 18 -11 24 -23 20 -12 -5 -13 -4 -5 7 7 8 9 17 5 20 -9 9 -14 8 -43
-7z m50 -116 c0 -5 -5 -10 -11 -10 -5 0 -7 5 -4 10 3 6 8 10 11 10 2 0 4 -4 4
-10z"/>
<path d="M546 3482 c-3 -5 1 -9 9 -9 8 0 15 4 15 9 0 4 -4 8 -9 8 -6 0 -12 -4
-15 -8z"/>
<path d="M3719 3367 c-44 -29 -63 -83 -55 -156 8 -66 30 -106 71 -125 36 -18
71 -12 103 17 66 60 43 248 -34 277 -37 14 -47 13 -85 -13z m84 -55 c21 -23
31 -97 19 -137 -5 -20 -18 -33 -36 -40 -43 -15 -66 20 -66 98 0 86 41 125 83
79z"/>
<path d="M3440 3230 l0 -150 25 0 c23 0 25 4 25 46 0 66 12 84 54 77 28 -4 35
-2 41 16 9 31 -2 41 -46 41 -38 0 -39 1 -39 35 l0 35 55 0 c52 0 55 1 55 25 0
25 -1 25 -85 25 l-85 0 0 -150z"/>
<path d="M3950 3230 l0 -150 24 0 c22 0 26 6 32 45 4 28 11 45 20 45 7 0 25
-20 40 -45 19 -34 32 -45 50 -45 29 0 29 1 4 47 -11 21 -20 46 -20 56 0 10 9
30 20 44 23 29 25 60 8 98 -17 37 -57 55 -123 55 l-55 0 0 -150z m134 68 c16
-26 -4 -52 -42 -56 -26 -3 -31 1 -37 27 -3 17 -3 35 0 41 10 17 66 7 79 -12z"/>
<path d="M3208 3338 c0 -18 0 -57 1 -85 3 -61 -10 -69 -35 -20 -44 87 -69 117
-96 117 l-28 0 0 -97 c0 -148 9 -203 31 -203 17 0 19 9 19 85 0 47 3 85 8 85
4 0 28 -34 54 -75 36 -58 52 -75 70 -75 l23 0 -3 150 c-3 141 -4 150 -23 150
-15 0 -19 -7 -21 -32z"/>
<path d="M4218 3220 l3 -150 24 0 c23 0 24 3 27 73 l3 72 26 -56 c43 -90 54
-89 85 9 9 29 21 55 25 58 5 3 9 -36 9 -85 0 -90 0 -91 25 -91 l25 0 0 155 0
155 -27 0 c-25 -1 -32 -8 -56 -63 -15 -34 -27 -67 -27 -74 0 -6 -4 -14 -9 -17
-4 -3 -23 33 -41 79 -31 81 -34 85 -64 85 l-31 0 3 -150z"/>
<path d="M2878 3333 l-48 -4 0 -97 c0 -53 -3 -121 -6 -149 l-7 -53 59 0 c78 0
104 8 104 31 0 16 -8 19 -50 19 l-50 0 0 35 c0 31 3 35 35 41 28 5 35 11 35
30 0 21 -5 24 -35 24 -33 0 -35 2 -35 34 0 33 1 34 50 41 44 6 50 10 50 31 0
26 5 25 -102 17z"/>
<path d="M4555 3194 c-4 -80 -5 -147 -2 -150 5 -6 114 -24 145 -24 17 0 22 6
22 24 0 28 -16 36 -71 36 -38 0 -39 1 -39 35 0 35 5 39 47 36 14 -2 24 5 28
18 9 30 -2 41 -41 41 -32 0 -34 2 -34 35 l0 35 55 0 c51 0 55 2 55 24 0 20 -6
24 -46 30 -26 3 -61 6 -79 6 l-33 0 -7 -146z"/>
<path d="M4898 3271 c-29 -26 -32 -32 -23 -57 7 -21 18 -30 37 -32 22 -3 28 2
38 32 15 46 22 50 51 28 32 -25 53 -32 68 -22 21 12 3 47 -33 64 -53 25 -100
21 -138 -13z"/>
<path d="M5203 3053 c-27 -38 -64 -94 -82 -125 -32 -56 -57 -85 -66 -76 -7 6
23 155 35 179 20 37 3 19 -32 -33 -18 -29 -55 -96 -81 -150 -25 -53 -59 -111
-75 -130 -31 -35 -95 -138 -90 -144 2 -1 21 5 43 15 36 16 88 64 112 104 27
45 247 204 363 262 63 32 191 77 198 70 3 -2 -6 -9 -19 -14 -51 -20 -156 -72
-194 -96 -22 -14 -48 -28 -57 -31 -17 -6 -22 -16 -15 -30 1 -3 -23 -17 -53
-32 -73 -36 -282 -202 -254 -202 4 0 30 7 58 15 28 8 101 26 161 41 61 15 141
43 179 63 89 45 187 142 251 246 26 44 57 90 68 103 24 26 18 27 -49 8 -27 -7
-74 -19 -104 -26 -30 -7 -106 -37 -169 -66 -63 -30 -118 -54 -122 -54 -10 0
37 130 51 144 6 6 10 14 10 18 0 21 -21 2 -67 -59z"/>
<path d="M1975 3069 c33 -41 65 -102 65 -129 0 -26 -1 -26 -57 9 -134 83 -249
120 -370 121 -68 0 -50 -17 30 -30 132 -21 192 -48 363 -161 74 -49 142 -106
209 -175 72 -74 109 -104 133 -109 17 -4 32 -5 32 -2 0 2 -9 25 -21 51 -32 73
-16 78 21 7 35 -65 140 -169 224 -221 75 -46 14 -32 -97 23 -104 51 -221 94
-357 130 -151 41 -410 48 -449 12 -11 -9 -45 -20 -77 -25 -106 -16 -218 -40
-265 -56 -40 -15 -45 -20 -41 -41 4 -19 1 -22 -13 -16 -12 4 -16 3 -12 -4 16
-26 -5 -43 -54 -43 -27 0 -49 3 -49 7 0 4 10 17 22 30 12 13 19 25 17 28 -12
12 -86 -20 -114 -50 -16 -18 -41 -36 -55 -39 -19 -6 -21 -5 -10 3 26 18 -9 13
-56 -8 -65 -30 -280 -208 -305 -253 -7 -12 14 -6 73 22 91 44 172 63 405 96
56 8 109 17 117 20 9 3 16 1 16 -5 0 -18 65 -13 127 10 70 26 158 112 218 214
22 38 45 74 53 81 36 36 309 0 572 -76 222 -64 227 -68 110 -89 -36 -7 -88
-23 -116 -36 -57 -25 -228 -138 -240 -157 -5 -7 -7 -42 -6 -78 3 -84 -6 -98
-45 -75 -41 24 -58 52 -42 71 6 8 7 14 2 14 -15 0 -200 -162 -271 -238 -35
-37 -87 -101 -117 -142 -51 -71 -125 -152 -125 -137 0 14 82 152 122 207 106
142 376 378 530 463 37 21 70 42 74 48 9 15 -34 57 -70 68 -79 24 -188 16
-123 -8 16 -6 32 -11 36 -11 4 0 18 -11 30 -24 30 -32 20 -35 -121 -28 -130 6
-158 -7 -57 -26 62 -11 109 -34 109 -52 0 -6 -9 -10 -19 -10 -28 0 -52 -11
-45 -21 3 -5 -1 -9 -8 -9 -171 -2 -207 -6 -264 -35 -74 -39 -81 -58 -12 -34
72 25 238 25 238 0 0 -4 -44 -21 -98 -39 -127 -41 -266 -124 -292 -173 -10
-17 -3 -15 45 12 61 35 145 63 145 49 0 -5 -24 -25 -54 -45 -75 -50 -151 -177
-167 -280 -6 -33 -12 -69 -16 -79 -4 -16 -2 -18 18 -12 13 4 76 20 139 37 127
33 140 39 195 98 46 48 56 46 25 -3 l-22 -36 22 0 c82 0 219 74 286 156 80 95
110 183 117 338 3 72 9 113 18 121 27 26 144 56 234 61 98 6 95 7 545 -155
107 -39 290 -81 350 -81 27 0 110 52 110 69 0 4 -37 9 -82 10 -77 2 -202 22
-215 34 -3 4 12 4 33 2 l39 -5 -35 11 c-19 6 -60 17 -90 25 -30 8 -79 22 -108
30 -30 9 -72 17 -95 19 -23 1 -43 8 -45 14 -2 6 -8 9 -13 6 -5 -4 -6 0 -4 7 4
9 -14 24 -47 41 -103 54 -204 131 -308 236 -96 96 -111 117 -170 231 -36 69
-80 142 -99 163 -34 38 -58 49 -47 22 8 -21 0 -19 -50 10 l-43 25 29 -55 c27
-51 31 -85 9 -85 -5 0 -20 22 -34 50 -25 50 -87 120 -106 120 -6 0 1 -14 16
-31z m-179 -1106 c-9 -64 -45 -140 -92 -189 -42 -45 -82 -70 -92 -58 -4 4 -1
9 6 11 6 3 12 13 12 23 0 11 6 23 14 27 13 8 26 47 29 90 1 11 5 19 10 16 4
-2 7 4 7 15 0 17 90 112 106 112 4 0 4 -21 0 -47z"/>
<path d="M3610 2900 c-102 -7 -165 -30 -194 -72 -26 -37 -20 -112 15 -188 l30
-66 69 0 c71 1 97 -9 67 -25 -15 -9 -17 -33 -17 -268 l0 -259 28 -8 27 -7 -30
-7 c-16 -4 -46 -8 -66 -9 -29 -1 -38 -6 -42 -23 -4 -12 -4 -24 -1 -27 9 -10
134 -18 166 -12 l32 7 3 204 c2 113 7 246 12 297 7 84 11 95 41 130 99 112
100 268 2 326 -17 9 -34 16 -39 15 -4 0 -51 -4 -103 -8z m116 -113 c13 -15 24
-22 24 -16 0 9 3 10 11 2 13 -13 -5 -89 -30 -122 -17 -22 -28 -25 -104 -29
-116 -6 -128 -2 -155 53 -30 62 -29 98 5 125 25 20 38 21 126 18 94 -3 100 -4
123 -31z"/>
<path d="M1696 2881 c8 -9 77 -14 149 -12 23 1 27 4 15 11 -20 13 -177 13
-164 1z"/>
<path d="M2995 2878 c-88 -8 -300 -37 -408 -56 -21 -4 -36 -11 -35 -17 4 -12
48 -7 65 7 7 6 19 8 26 5 7 -3 51 -1 98 4 240 24 413 39 448 39 25 0 41 5 45
15 4 13 -6 15 -67 14 -40 -1 -117 -6 -172 -11z"/>
<path d="M3950 2875 c0 -12 18 -15 108 -14 59 1 99 3 90 6 -10 2 -18 9 -18 14
0 5 -40 9 -90 9 -73 0 -90 -3 -90 -15z"/>
<path d="M4295 2870 l30 -8 -30 -2 -30 -2 30 -8 c46 -12 113 -12 95 0 -11 7
-7 10 20 11 30 1 28 3 -15 9 -27 5 -68 8 -90 8 -38 0 -39 -1 -10 -8z"/>
<path d="M4463 2853 c9 -2 23 -2 30 0 6 3 -1 5 -18 5 -16 0 -22 -2 -12 -5z"/>
<path d="M4584 2833 c11 -3 26 -11 34 -19 15 -15 77 -20 68 -5 -6 9 -87 32
-108 30 -7 -1 -4 -4 6 -6z"/>
<path d="M1895 2809 c-16 -11 -41 -24 -54 -30 -19 -8 -21 -12 -10 -25 21 -25
43 -33 197 -74 81 -21 162 -43 180 -48 17 -6 32 -7 32 -3 0 10 -95 100 -163
154 -51 41 -65 47 -105 47 -31 0 -57 -7 -77 -21z"/>
<path d="M4508 2823 c7 -3 16 -2 19 1 4 3 -2 6 -13 5 -11 0 -14 -3 -6 -6z"/>
<path d="M4802 2707 c-94 -115 -219 -226 -320 -286 -51 -30 -92 -58 -92 -63 0
-5 11 -1 26 8 19 13 28 14 37 5 8 -8 6 -11 -9 -11 -11 0 -25 -5 -31 -11 -8 -8
-17 -8 -33 1 -15 8 -20 8 -16 1 5 -7 -1 -11 -14 -11 -14 0 -19 -4 -14 -12 5
-8 2 -9 -9 -5 -10 4 -17 2 -17 -4 0 -6 -6 -9 -14 -6 -21 8 -87 -12 -105 -33
-9 -10 -43 -26 -76 -35 -33 -10 -78 -23 -100 -31 -47 -15 -191 -58 -252 -74
-42 -11 -43 -12 -43 -54 0 -33 6 -48 28 -68 35 -32 95 -68 115 -68 8 0 32 23
52 51 43 61 37 72 -37 66 -91 -8 -29 28 134 78 62 18 185 59 273 90 88 31 201
70 250 87 64 22 115 33 176 36 132 7 287 -32 329 -83 12 -15 81 -55 95 -55 18
0 -2 20 -49 48 -30 18 -64 44 -75 58 -25 32 -126 70 -210 80 -34 4 -64 10 -66
15 -5 7 94 49 118 49 7 0 56 14 110 30 137 43 271 70 411 81 67 5 148 12 181
15 77 8 206 -11 320 -46 50 -16 106 -31 125 -35 50 -10 204 -85 279 -136 61
-42 150 -134 139 -144 -3 -3 -25 12 -49 33 -97 85 -274 183 -374 208 l-30 7
37 -44 c21 -24 58 -74 83 -111 57 -84 84 -104 165 -118 84 -14 153 -36 215
-69 28 -14 53 -27 57 -29 10 -5 -40 153 -68 214 -40 87 -214 302 -214 265 0
-8 -20 -10 -62 -5 -43 4 -85 1 -133 -11 -71 -16 -165 -13 -165 6 0 33 147 75
233 66 l52 -5 -35 16 c-21 10 -72 18 -128 20 -81 3 -101 1 -166 -23 -64 -23
-86 -26 -187 -25 -176 2 -445 -15 -534 -34 -156 -34 -386 -110 -460 -152 -53
-31 -125 -56 -125 -44 0 5 18 19 39 30 66 33 178 137 224 208 41 65 81 142 72
142 -2 0 -31 -33 -63 -73z m1467 -182 c29 -14 45 -38 34 -49 -14 -14 -141 9
-217 40 -19 7 -19 8 0 15 34 14 153 10 183 -6z m-139 -115 c22 -11 40 -24 40
-29 0 -6 -20 2 -45 16 -41 23 -54 33 -40 33 3 0 24 -9 45 -20z m121 -127 c13
-16 12 -17 -3 -4 -10 7 -18 15 -18 17 0 8 8 3 21 -13z"/>
<path d="M1504 2713 c0 -10 4 -21 9 -24 4 -3 2 -20 -4 -37 -16 -46 -45 -50
-114 -13 -41 22 -71 31 -104 31 l-46 -1 45 -18 c60 -24 120 -61 98 -61 -9 0
-50 14 -91 30 -50 20 -92 30 -124 29 -26 0 -41 -3 -33 -6 167 -55 185 -112 27
-84 -78 14 -177 14 -197 1 -11 -7 -1 -10 35 -11 28 0 68 -6 90 -12 l39 -12
-37 -22 c-20 -12 -65 -31 -99 -41 -34 -11 -64 -25 -66 -32 -3 -8 0 -10 8 -5
10 6 12 4 7 -8 -4 -12 11 -7 56 17 144 78 421 155 585 163 56 3 102 9 102 13
0 14 -92 92 -125 106 -46 19 -63 18 -61 -3z"/>
<path d="M3150 2701 c-16 -30 -12 -49 11 -56 30 -10 53 16 45 49 -8 31 -40 35
-56 7z"/>
<path d="M4003 2713 c-18 -7 -16 -48 2 -63 12 -10 20 -9 40 4 30 20 31 28 7
49 -19 17 -28 19 -49 10z"/>
<path d="M2630 2691 c0 -5 15 -16 33 -24 17 -9 49 -31 69 -50 96 -88 357 -236
534 -303 76 -28 74 -28 74 -9 0 8 -30 36 -67 63 -36 26 -96 73 -132 105 -36
32 -86 67 -111 79 -25 12 -70 38 -100 59 -30 21 -80 47 -110 57 -63 22 -190
37 -190 23z"/>
<path d="M4413 2683 c-24 -2 -43 -9 -43 -15 0 -5 7 -8 15 -4 8 3 15 2 15 -2 0
-4 -23 -17 -50 -30 -28 -13 -69 -41 -93 -63 -23 -22 -73 -55 -112 -73 -63 -30
-273 -165 -318 -204 -69 -60 120 20 303 128 30 18 89 51 130 73 41 22 93 52
115 68 22 16 71 51 109 79 l70 50 -50 -2 c-27 -1 -68 -3 -91 -5z"/>
<path d="M4320 2650 c-9 -6 -10 -10 -3 -10 6 0 15 5 18 10 8 12 4 12 -15 0z"/>
<path d="M5525 2543 c14 -62 114 -185 190 -238 50 -35 145 -59 145 -38 0 6
-17 32 -38 59 -33 42 -72 119 -72 141 0 4 16 -20 36 -53 43 -71 86 -118 128
-137 40 -19 196 -33 196 -17 0 12 -25 23 -94 41 -60 15 -138 76 -177 137 -33
53 -36 69 -11 74 9 2 -8 12 -40 21 -69 21 -72 21 -64 2 3 -8 1 -15 -4 -15 -6
0 -10 -7 -10 -15 0 -18 16 -20 23 -2 3 6 6 3 6 -8 0 -11 -7 -29 -15 -40 -16
-20 -16 -20 -9 3 6 20 -8 32 -18 15 -2 -5 -2 -3 -1 4 2 6 -2 14 -9 17 -9 3 -9
5 1 5 6 1 12 6 12 12 0 27 -82 59 -151 59 -29 0 -31 -2 -24 -27z"/>
<path d="M5858 2503 c7 -3 16 -2 19 1 4 3 -2 6 -13 5 -11 0 -14 -3 -6 -6z"/>
<path d="M5225 2325 c-33 -7 -69 -14 -80 -17 -18 -3 -18 -5 7 -22 26 -17 30
-17 63 -2 19 9 70 24 112 32 42 8 79 17 82 19 9 10 -126 3 -184 -10z"/>
<path d="M5565 2243 c16 -40 12 -48 -25 -43 -55 8 -257 6 -266 -3 -14 -13 30
-36 56 -29 75 20 205 0 262 -39 23 -17 98 -118 98 -133 0 -4 -17 1 -37 10 -74
32 -139 51 -193 58 l-55 7 27 -27 c18 -18 42 -29 77 -35 27 -4 65 -15 83 -24
41 -20 144 -112 135 -121 -4 -4 -31 9 -60 28 -61 41 -157 91 -163 86 -2 -2 23
-33 55 -69 75 -84 191 -256 191 -284 0 -14 -32 14 -75 64 -25 29 -45 48 -45
41 0 -6 -4 -9 -10 -5 -5 3 -6 13 -3 23 5 14 3 15 -7 5 -11 -10 -11 -18 -2 -38
16 -34 17 -32 -20 -37 -25 -4 -39 2 -70 30 -21 19 -51 57 -66 83 -15 27 -32
47 -39 45 -7 -3 -13 7 -15 26 -2 17 -9 33 -16 36 -10 3 -12 -5 -6 -34 22 -120
111 -224 191 -224 23 0 121 -31 206 -65 15 -6 17 0 17 66 0 41 -11 139 -24
219 -21 124 -31 157 -70 235 -24 49 -61 107 -82 128 -40 40 -61 48 -49 20z"/>
<path d="M2611 2187 c-31 -19 -21 -23 69 -31 79 -8 118 -21 90 -30 -8 -2 -30
-7 -49 -10 -18 -3 -63 -26 -100 -50 -117 -78 -127 -106 -40 -106 61 0 83 11
179 89 45 37 93 67 119 75 l45 13 -45 6 c-25 3 -67 15 -93 27 -63 27 -144 35
-175 17z"/>
<path d="M5211 2174 c27 -30 46 -101 64 -229 14 -102 37 -185 51 -185 7 0 -10
129 -33 260 -16 95 -33 130 -76 159 -21 14 -21 14 -6 -5z"/>
<path d="M1064 2156 c-73 -33 -126 -145 -105 -221 24 -90 98 -142 185 -131 67
9 118 44 145 98 57 119 -18 255 -147 265 -27 2 -60 -3 -78 -11z m143 -53 c13
-9 33 -34 45 -56 39 -77 -1 -170 -86 -202 -43 -16 -47 -16 -83 1 -110 54 -112
211 -3 267 39 20 87 16 127 -10z"/>
<path d="M1107 2023 c-11 -11 -8 -48 5 -61 16 -16 43 -15 58 3 24 29 -36 85
-63 58z"/>
<path d="M5995 2158 c-104 -36 -150 -168 -94 -268 33 -60 68 -82 133 -88 109
-9 186 58 194 167 6 89 -32 153 -111 186 -41 17 -79 18 -122 3z m115 -50 c79
-40 105 -130 60 -204 -38 -61 -116 -82 -181 -49 -94 49 -91 219 5 261 44 19
65 17 116 -8z"/>
<path d="M6032 2029 c-19 -7 -23 -15 -20 -41 2 -26 8 -34 26 -36 30 -4 52 14
52 44 0 29 -27 45 -58 33z"/>
<path d="M3411 2106 c-18 -18 -51 -41 -74 -51 -23 -9 -50 -21 -60 -26 -10 -5
-22 -7 -27 -4 -6 4 -10 -1 -10 -10 0 -11 -6 -15 -18 -11 -16 5 -142 -59 -197
-100 -17 -13 -18 -16 -5 -24 12 -8 12 -10 1 -10 -8 0 -33 18 -57 40 -40 37
-74 51 -74 32 0 -5 9 -17 21 -27 11 -11 36 -50 56 -87 19 -37 39 -68 43 -68 4
0 13 7 21 16 7 9 45 32 83 51 39 19 98 54 131 76 33 22 97 58 142 78 44 21 83
42 86 46 8 14 -8 106 -18 110 -6 2 -26 -12 -44 -31z m-261 -140 c0 -2 -8 -10
-17 -17 -16 -13 -17 -12 -4 4 13 16 21 21 21 13z m-75 -56 c-3 -5 -12 -10 -18
-10 -7 0 -6 4 3 10 19 12 23 12 15 0z"/>
<path d="M2425 2082 c-33 -20 -95 -87 -95 -102 0 -29 100 17 132 61 14 19 28
40 32 47 11 19 -34 15 -69 -6z"/>
<path d="M5307 2085 c6 -11 18 -37 28 -57 9 -21 21 -35 26 -32 5 3 9 0 9 -5 0
-6 -4 -11 -10 -11 -5 0 -10 -4 -10 -10 0 -19 31 -10 38 11 8 22 5 24 131 -116
15 -17 26 -36 24 -42 -2 -6 1 -14 6 -18 6 -3 11 -1 11 5 0 6 5 8 10 5 24 -15
5 11 -69 93 -84 94 -211 210 -194 177z"/>
<path d="M3963 1998 c-24 -28 -53 -70 -53 -79 0 -13 211 -139 234 -139 2 0 19
25 36 55 17 30 41 62 53 70 15 11 18 18 10 26 -13 13 -53 3 -53 -14 0 -7 -7
-23 -16 -35 -12 -18 -19 -20 -35 -12 -11 6 -17 15 -14 20 3 5 -26 27 -66 48
-41 23 -66 43 -59 47 6 4 21 0 33 -8 12 -7 42 -17 67 -21 44 -7 45 -6 21 10
-23 16 -113 54 -129 54 -5 0 -18 -10 -29 -22z"/>
<path d="M2855 1920 c-4 -6 -4 -33 0 -60 6 -42 4 -50 -14 -59 -11 -6 -32 -22
-45 -34 -14 -13 -53 -32 -86 -42 -61 -19 -86 -35 -54 -35 30 0 0 -22 -36 -26
-26 -3 -34 1 -51 31 -29 48 -44 44 -19 -5 30 -59 25 -101 -8 -68 -9 9 -12 8
-12 -6 0 -34 -28 2 -46 58 -33 106 -65 117 -139 49 -22 -20 -32 -33 -23 -30
14 5 16 2 9 -16 -5 -13 -38 -38 -83 -62 -115 -63 -214 -137 -317 -238 -95 -93
-171 -184 -171 -205 0 -14 29 -15 118 -3 37 5 108 15 157 21 119 16 262 58
357 105 129 62 189 150 160 229 -15 40 1 52 65 46 23 -1 199 83 263 126 19 13
46 24 60 24 55 0 55 13 -1 95 -30 43 -59 86 -65 97 -8 13 -14 16 -19 8z m-775
-568 c0 -4 -10 -13 -22 -21 -22 -13 -23 -13 -5 6 9 11 14 23 10 28 -5 4 -2 5
5 1 6 -4 12 -10 12 -14z m-124 -35 c-11 -7 -29 -21 -40 -32 -12 -11 -29 -27
-39 -34 -17 -14 -17 -13 0 17 10 17 31 37 48 46 36 18 58 20 31 3z"/>
<path d="M3550 1891 c-23 -6 -25 -11 -26 -66 -1 -33 -8 -81 -17 -107 -16 -46
-16 -50 14 -175 17 -70 42 -159 55 -197 29 -84 19 -106 -23 -48 -21 28 -37 74
-57 158 -15 66 -35 143 -43 172 l-14 52 -42 0 c-23 0 -60 5 -82 10 -29 6 -45
6 -59 -3 -18 -12 -19 -28 -17 -257 2 -247 10 -317 47 -425 22 -68 75 -148 134
-204 48 -46 142 -101 174 -101 37 0 143 65 197 121 63 66 107 143 139 244 19
61 22 104 29 345 4 151 4 279 0 284 -4 5 -49 4 -103 -3 -63 -7 -103 -8 -120
-1 -36 13 -66 67 -66 117 0 23 -4 53 -10 67 -8 22 -15 26 -47 25 -21 -1 -49
-4 -63 -8z"/>
<path d="M4238 1883 c-8 -10 -29 -45 -47 -78 -29 -55 -30 -61 -14 -72 9 -7 31
-13 49 -13 18 0 36 -5 39 -10 4 -6 39 -27 78 -46 122 -61 130 -79 69 -147
-123 -136 -113 -170 77 -276 208 -116 277 -182 337 -324 53 -124 89 -128 81
-9 -9 130 -102 247 -292 370 -190 123 -194 129 -123 200 41 42 41 42 67 25 14
-10 82 -53 151 -96 213 -134 273 -189 349 -324 30 -54 44 -69 65 -71 24 -3 26
-1 26 36 0 67 -62 175 -156 268 -73 73 -131 116 -306 227 -36 23 -58 44 -58
55 0 26 81 102 108 102 13 0 97 -50 188 -111 185 -125 243 -184 302 -306 41
-87 56 -103 79 -81 38 39 -28 205 -123 307 -29 32 -95 87 -145 122 -51 35
-127 90 -170 122 -47 35 -91 60 -114 64 -34 5 -40 2 -109 -66 -41 -39 -81 -71
-90 -71 -9 0 -42 19 -73 43 -32 24 -75 56 -95 70 -20 15 -38 37 -40 49 -5 40
-40 28 -75 -27 -18 -27 -33 -44 -33 -37 0 18 19 53 42 79 11 12 17 26 13 32
-10 17 -40 13 -57 -6z"/>
<path d="M2255 1670 c-3 -5 -2 -10 4 -10 5 0 13 5 16 10 3 6 2 10 -4 10 -5 0
-13 -4 -16 -10z"/>
<path d="M2153 1609 c-18 -12 -33 -23 -33 -25 0 -7 58 25 65 36 9 14 5 13 -32
-11z"/>
<path d="M2708 1320 c4 -87 22 -83 22 6 0 44 -4 64 -12 64 -10 0 -12 -19 -10
-70z"/>
<path d="M2796 1375 c-24 -24 -21 -88 5 -111 21 -19 21 -18 40 5 24 30 21 53
-9 66 -28 12 -29 25 -1 25 12 0 19 5 17 13 -7 19 -34 20 -52 2z m34 -86 c0
-20 -15 -26 -25 -9 -9 15 3 43 15 35 5 -3 10 -15 10 -26z"/>
<path d="M2904 1356 c-11 -47 15 -97 46 -89 45 12 30 104 -17 111 -17 2 -24
-3 -29 -22z m56 -6 c0 -5 -9 -10 -21 -10 -11 0 -17 5 -14 10 3 6 13 10 21 10
8 0 14 -4 14 -10z m-10 -45 c0 -8 -4 -15 -10 -15 -5 0 -10 7 -10 15 0 8 5 15
10 15 6 0 10 -7 10 -15z"/>
<path d="M690 1315 c0 -30 5 -55 10 -55 6 0 10 9 10 20 0 26 14 25 34 -2 l17
-23 -6 22 c-3 12 -1 32 5 43 15 28 -3 50 -41 50 -28 0 -29 -1 -29 -55z m55 24
c0 -7 -8 -15 -17 -17 -18 -3 -25 18 -11 32 10 10 28 1 28 -15z"/>
<path d="M830 1316 c0 -52 1 -54 30 -58 17 -3 33 -1 36 3 2 4 -6 9 -18 11 -26
3 -38 38 -14 38 9 0 16 5 16 10 0 6 -7 10 -15 10 -8 0 -15 5 -15 10 0 6 9 10
20 10 11 0 20 5 20 10 0 6 -13 10 -30 10 -30 0 -30 -1 -30 -54z"/>
<path d="M1016 1336 c-8 -20 -18 -36 -21 -36 -3 0 -11 14 -17 31 -6 16 -12 28
-14 26 -7 -7 28 -97 36 -92 10 6 42 97 36 103 -3 2 -12 -12 -20 -32z"/>
<path d="M1110 1310 c0 -33 4 -60 10 -60 6 0 10 27 10 60 0 33 -4 60 -10 60
-6 0 -10 -27 -10 -60z"/>
<path d="M1227 1363 c-4 -3 -7 -17 -7 -29 0 -16 7 -24 23 -26 32 -4 29 -34 -3
-30 -24 3 -24 2 -7 -15 16 -17 18 -16 40 5 l22 23 -29 26 c-29 24 -29 26 -11
39 18 14 18 14 -1 14 -12 0 -24 -3 -27 -7z"/>
<path d="M1370 1310 c0 -41 4 -60 13 -60 8 0 11 16 9 55 -3 45 -1 55 12 55 25
0 42 -45 28 -75 -7 -14 -8 -25 -2 -25 12 0 30 33 30 54 0 24 -37 56 -65 56
-24 0 -25 -3 -25 -60z"/>
<path d="M5778 1363 c-11 -3 -18 -14 -18 -29 0 -19 6 -26 30 -30 17 -4 30 -13
30 -21 0 -11 -7 -14 -25 -11 -28 6 -34 -6 -9 -16 9 -4 23 -1 30 5 23 19 16 49
-12 59 -26 10 -25 30 2 30 8 0 14 5 14 10 0 10 -12 11 -42 3z"/>
<path d="M5641 1337 c-6 -16 -15 -36 -20 -45 -8 -14 -4 -17 25 -17 33 0 34 1
28 30 -11 54 -21 63 -33 32z m19 -32 c0 -8 -7 -15 -15 -15 -9 0 -12 6 -9 15 4
8 10 15 15 15 5 0 9 -7 9 -15z"/>
<path d="M6061 1346 c-9 -10 -9 -20 0 -40 7 -14 16 -26 20 -26 13 0 20 33 8
41 -7 4 -9 14 -6 23 8 20 -6 21 -22 2z"/>
<path d="M6195 1350 c-5 -9 -1 -10 14 -5 17 5 21 2 21 -18 0 -13 -9 -32 -20
-42 -27 -24 -25 -35 5 -35 18 0 23 4 18 15 -3 9 3 25 13 36 14 15 16 24 8 37
-13 21 -49 28 -59 12z"/>
<path d="M6368 1343 c-8 -10 -18 -25 -22 -33 -4 -8 2 -5 13 8 11 13 25 21 31
17 5 -3 10 1 10 9 0 21 -13 20 -32 -1z"/>
<path d="M6387 1300 c-3 -12 0 -20 7 -20 18 0 25 10 19 26 -7 20 -20 17 -26
-6z"/>
<path d="M5898 1288 c9 -9 15 -9 24 0 9 9 7 12 -12 12 -19 0 -21 -3 -12 -12z"/>
<path d="M6020 1270 c0 -5 7 -10 16 -10 8 0 12 5 9 10 -3 6 -10 10 -16 10 -5
0 -9 -4 -9 -10z"/>
<path d="M4270 1126 c0 -2 7 -7 16 -10 8 -3 12 -2 9 4 -6 10 -25 14 -25 6z"/>
</g>
</svg>
